<?xml version="1.0" encoding="UTF-8" standalone="no"?>
<!DOCTYPE svg PUBLIC "-//W3C//DTD SVG 1.0//EN" "http://www.w3.org/TR/2001/PR-SVG-20010719/DTD/svg10.dtd">
<svg width="37cm" height="15cm" viewBox="1 68 726 295" xmlns="http://www.w3.org/2000/svg" xmlns:xlink="http://www.w3.org/1999/xlink">
  <line style="fill: none; fill-opacity:0; stroke-width: 2; stroke: #000000" x1="94.5946" y1="125.054" x2="198.595" y2="125.054"/>
  <line style="fill: none; fill-opacity:0; stroke-width: 2; stroke: #000000" x1="94" y1="224" x2="208" y2="224"/>
  <g>
    <rect style="fill: #ffffff" x="88" y="103.702" width="5.75832" height="140.623"/>
    <rect style="fill: none; fill-opacity:0; stroke-width: 2; stroke: #000000" x="88" y="103.702" width="5.75832" height="140.623"/>
  </g>
  <line style="fill: none; fill-opacity:0; stroke-width: 2; stroke: #000000" x1="94.5946" y1="129.054" x2="202.078" y2="129.054"/>
  <line style="fill: none; fill-opacity:0; stroke-width: 2; stroke: #000000" x1="94" y1="220" x2="206" y2="220"/>
  <path style="fill: none; fill-opacity:0; stroke-width: 2; stroke: #000000" d="M 198.408 124.513 C 228.408,154.513 187.483,184 207.484,224"/>
  <g>
    <rect style="fill: #000000" x="84.5946" y="113.434" width="8" height="4"/>
    <rect style="fill: none; fill-opacity:0; stroke-width: 2; stroke: #000000" x="84.5946" y="113.434" width="8" height="4"/>
  </g>
  <g>
    <rect style="fill: #000000" x="84.892" y="208.744" width="8" height="4"/>
    <rect style="fill: none; fill-opacity:0; stroke-width: 2; stroke: #000000" x="84.892" y="208.744" width="8" height="4"/>
  </g>
  <g>
    <rect style="fill: #000000" x="84.892" y="231.62" width="8" height="4"/>
    <rect style="fill: none; fill-opacity:0; stroke-width: 2; stroke: #000000" x="84.892" y="231.62" width="8" height="4"/>
  </g>
  <line style="fill: none; fill-opacity:0; stroke-width: 2; stroke: #000000" x1="84" y1="100" x2="84" y2="260"/>
  <line style="fill: none; fill-opacity:0; stroke-width: 2; stroke: #000000" x1="88" y1="100" x2="88" y2="260"/>
  <line style="fill: none; fill-opacity:0; stroke-width: 2; stroke: #000000" x1="2.32234" y1="100" x2="2.32234" y2="260"/>
  <line style="fill: none; fill-opacity:0; stroke-width: 2; stroke: #000000" x1="6.32234" y1="100" x2="6.32234" y2="260"/>
  <path style="fill: none; fill-opacity:0; stroke-width: 2; stroke: #000000" d="M 2.55384 100.582 C 26.5538,104.582 64,96 88,100"/>
  <path style="fill: none; fill-opacity:0; stroke-width: 2; stroke: #000000" d="M 3.55384 260.082 C 27.5538,264.082 64,252 88,260"/>
  <text font-size="12.8" style="fill: #000000;text-anchor:start;font-family:sans-serif;font-style:normal;font-weight:normal" x="68.079" y="300">
    <tspan x="68.079" y="300">4 Bolt Unstiffened</tspan>
  </text>
  <g>
    <rect style="fill: #000000" x="84.5068" y="137.063" width="8" height="4"/>
    <rect style="fill: none; fill-opacity:0; stroke-width: 2; stroke: #000000" x="84.5068" y="137.063" width="8" height="4"/>
  </g>
  <g>
    <line style="fill: none; fill-opacity:0; stroke-width: 2; stroke: #000000" x1="6.95248" y1="123.678" x2="83.3926" y2="123.678"/>
    <line style="fill: none; fill-opacity:0; stroke-width: 2; stroke: #000000" x1="7.27092" y1="129.858" x2="83.711" y2="129.858"/>
  </g>
  <g>
    <line style="fill: none; fill-opacity:0; stroke-width: 2; stroke: #000000" x1="6.72566" y1="219.28" x2="83.1658" y2="219.28"/>
    <line style="fill: none; fill-opacity:0; stroke-width: 2; stroke: #000000" x1="7.0441" y1="225.46" x2="83.4842" y2="225.46"/>
  </g>
  <line style="fill: none; fill-opacity:0; stroke-width: 2; stroke: #000000" x1="347.518" y1="119.439" x2="451.518" y2="119.439"/>
  <line style="fill: none; fill-opacity:0; stroke-width: 2; stroke: #000000" x1="346.923" y1="218.385" x2="460.923" y2="218.385"/>
  <g>
    <rect style="fill: #ffffff" x="340.923" y="98.087" width="5.75832" height="140.623"/>
    <rect style="fill: none; fill-opacity:0; stroke-width: 2; stroke: #000000" x="340.923" y="98.087" width="5.75832" height="140.623"/>
  </g>
  <line style="fill: none; fill-opacity:0; stroke-width: 2; stroke: #000000" x1="347.518" y1="123.439" x2="455.001" y2="123.439"/>
  <line style="fill: none; fill-opacity:0; stroke-width: 2; stroke: #000000" x1="346.923" y1="214.385" x2="458.923" y2="214.385"/>
  <path style="fill: none; fill-opacity:0; stroke-width: 2; stroke: #000000" d="M 451.332 118.898 C 481.331,148.898 440.407,178.385 460.407,218.385"/>
  <g>
    <rect style="fill: #000000" x="337.518" y="107.819" width="8" height="4"/>
    <rect style="fill: none; fill-opacity:0; stroke-width: 2; stroke: #000000" x="337.518" y="107.819" width="8" height="4"/>
  </g>
  <g>
    <rect style="fill: #000000" x="337.815" y="203.129" width="8" height="4"/>
    <rect style="fill: none; fill-opacity:0; stroke-width: 2; stroke: #000000" x="337.815" y="203.129" width="8" height="4"/>
  </g>
  <g>
    <rect style="fill: #000000" x="337.815" y="226.005" width="8" height="4"/>
    <rect style="fill: none; fill-opacity:0; stroke-width: 2; stroke: #000000" x="337.815" y="226.005" width="8" height="4"/>
  </g>
  <line style="fill: none; fill-opacity:0; stroke-width: 2; stroke: #000000" x1="336.923" y1="94.3848" x2="336.923" y2="254.385"/>
  <line style="fill: none; fill-opacity:0; stroke-width: 2; stroke: #000000" x1="340.923" y1="94.3848" x2="340.923" y2="254.385"/>
  <line style="fill: none; fill-opacity:0; stroke-width: 2; stroke: #000000" x1="255.246" y1="94.3848" x2="255.246" y2="254.385"/>
  <line style="fill: none; fill-opacity:0; stroke-width: 2; stroke: #000000" x1="259.246" y1="94.3848" x2="259.246" y2="254.385"/>
  <path style="fill: none; fill-opacity:0; stroke-width: 2; stroke: #000000" d="M 255.477 94.967 C 279.477,98.967 316.923,90.3848 340.923,94.3848"/>
  <path style="fill: none; fill-opacity:0; stroke-width: 2; stroke: #000000" d="M 256.477 254.467 C 280.477,258.467 316.923,246.385 340.923,254.385"/>
  <text font-size="12.8" style="fill: #000000;text-anchor:start;font-family:sans-serif;font-style:normal;font-weight:normal" x="320" y="300">
    <tspan x="320" y="300">4 Bolt Stiffened</tspan>
  </text>
  <g>
    <rect style="fill: #000000" x="337.43" y="131.448" width="8" height="4"/>
    <rect style="fill: none; fill-opacity:0; stroke-width: 2; stroke: #000000" x="337.43" y="131.448" width="8" height="4"/>
  </g>
  <g>
    <line style="fill: none; fill-opacity:0; stroke-width: 2; stroke: #000000" x1="259.876" y1="118.063" x2="336.316" y2="118.063"/>
    <line style="fill: none; fill-opacity:0; stroke-width: 2; stroke: #000000" x1="260.194" y1="124.243" x2="336.634" y2="124.243"/>
  </g>
  <g>
    <line style="fill: none; fill-opacity:0; stroke-width: 2; stroke: #000000" x1="259.649" y1="213.665" x2="336.089" y2="213.665"/>
    <line style="fill: none; fill-opacity:0; stroke-width: 2; stroke: #000000" x1="259.967" y1="219.845" x2="336.408" y2="219.845"/>
  </g>
  <line style="fill: none; fill-opacity:0; stroke-width: 2; stroke: #000000" x1="346.682" y1="98.087" x2="362.635" y2="98.1556"/>
  <line style="fill: none; fill-opacity:0; stroke-width: 2; stroke: #000000" x1="391.038" y1="118.641" x2="390.988" y2="112.184"/>
  <line style="fill: none; fill-opacity:0; stroke-width: 2; stroke: #000000" x1="362.169" y1="97.9056" x2="391.306" y2="112.617"/>
  <line style="fill: none; fill-opacity:0; stroke-width: 2; stroke: #000000" x1="346.682" y1="238.71" x2="362.635" y2="238.831"/>
  <line style="fill: none; fill-opacity:0; stroke-width: 2; stroke: #000000" x1="391.774" y1="225.623" x2="391.724" y2="219.167"/>
  <line style="fill: none; fill-opacity:0; stroke-width: 2; stroke: #000000" x1="362.28" y1="239.067" x2="392.078" y2="224.927"/>
  <line style="fill: none; fill-opacity:0; stroke-width: 2; stroke: #000000" x1="611.099" y1="114.903" x2="715.099" y2="114.903"/>
  <line style="fill: none; fill-opacity:0; stroke-width: 2; stroke: #000000" x1="610.504" y1="218.308" x2="724.504" y2="218.308"/>
  <g>
    <rect style="fill: #ffffff" x="604.504" y="83.2127" width="5.75832" height="168.241"/>
    <rect style="fill: none; fill-opacity:0; stroke-width: 2; stroke: #000000" x="604.504" y="83.2127" width="5.75832" height="168.241"/>
  </g>
  <line style="fill: none; fill-opacity:0; stroke-width: 2; stroke: #000000" x1="611.099" y1="118.903" x2="718.582" y2="118.903"/>
  <line style="fill: none; fill-opacity:0; stroke-width: 2; stroke: #000000" x1="610.504" y1="214.308" x2="722.504" y2="214.308"/>
  <path style="fill: none; fill-opacity:0; stroke-width: 2; stroke: #000000" d="M 714.784 115.333 C 744.784,145.333 703.975,178.216 723.976,218.216"/>
  <g>
    <rect style="fill: #000000" x="601.099" y="103.58" width="8" height="4"/>
    <rect style="fill: none; fill-opacity:0; stroke-width: 2; stroke: #000000" x="601.099" y="103.58" width="8" height="4"/>
  </g>
  <line style="fill: none; fill-opacity:0; stroke-width: 2; stroke: #000000" x1="600.888" y1="69.5369" x2="600.888" y2="262.484"/>
  <line style="fill: none; fill-opacity:0; stroke-width: 2; stroke: #000000" x1="604.456" y1="70.7261" x2="604.456" y2="263.376"/>
  <line style="fill: none; fill-opacity:0; stroke-width: 2; stroke: #000000" x1="519.13" y1="70.7261" x2="519.13" y2="263.674"/>
  <line style="fill: none; fill-opacity:0; stroke-width: 2; stroke: #000000" x1="522.698" y1="71.6179" x2="522.995" y2="263.376"/>
  <path style="fill: none; fill-opacity:0; stroke-width: 2; stroke: #000000" d="M 519.058 70.8091 C 543.058,74.8091 580.456,66.1315 604.456,70.1315"/>
  <path style="fill: none; fill-opacity:0; stroke-width: 2; stroke: #000000" d="M 519.428 263.674 C 543.428,267.674 580.504,256.118 604.504,264.118"/>
  <text font-size="12.8" style="fill: #000000;text-anchor:start;font-family:sans-serif;font-style:normal;font-weight:normal" x="597.249" y="300">
    <tspan x="597.249" y="300">8 Bolt Stiffened</tspan>
  </text>
  <g>
    <rect style="fill: #000000" x="601.011" y="128.398" width="8" height="4"/>
    <rect style="fill: none; fill-opacity:0; stroke-width: 2; stroke: #000000" x="601.011" y="128.398" width="8" height="4"/>
  </g>
  <line style="fill: none; fill-opacity:0; stroke-width: 2; stroke: #000000" x1="657.171" y1="114.276" x2="657.253" y2="103.607"/>
  <line style="fill: none; fill-opacity:0; stroke-width: 2; stroke: #000000" x1="621.848" y1="83.0641" x2="656.994" y2="103.669"/>
  <g>
    <rect style="fill: #000000" x="600.848" y="91.6451" width="8" height="4"/>
    <rect style="fill: none; fill-opacity:0; stroke-width: 2; stroke: #000000" x="600.848" y="91.6451" width="8" height="4"/>
  </g>
  <g>
    <rect style="fill: #000000" x="601.591" y="139.808" width="8" height="4"/>
    <rect style="fill: none; fill-opacity:0; stroke-width: 2; stroke: #000000" x="601.591" y="139.808" width="8" height="4"/>
  </g>
  <g>
    <line style="fill: none; fill-opacity:0; stroke-width: 2; stroke: #000000" x1="523.457" y1="115.311" x2="599.897" y2="115.311"/>
    <line style="fill: none; fill-opacity:0; stroke-width: 2; stroke: #000000" x1="523.775" y1="119.409" x2="600.215" y2="119.409"/>
  </g>
  <g>
    <line style="fill: none; fill-opacity:0; stroke-width: 2; stroke: #000000" x1="523.252" y1="214.132" x2="599.692" y2="214.132"/>
    <line style="fill: none; fill-opacity:0; stroke-width: 2; stroke: #000000" x1="523.57" y1="218.232" x2="600.011" y2="218.232"/>
  </g>
  <line style="fill: none; fill-opacity:0; stroke-width: 2; stroke: #000000" x1="622.591" y1="83.2127" x2="610.263" y2="83.2127"/>
  <g>
    <rect style="fill: #000000" x="600.958" y="202.35" width="8" height="4"/>
    <rect style="fill: none; fill-opacity:0; stroke-width: 2; stroke: #000000" x="600.958" y="202.35" width="8" height="4"/>
  </g>
  <g>
    <rect style="fill: #000000" x="600.87" y="227.168" width="8" height="4"/>
    <rect style="fill: none; fill-opacity:0; stroke-width: 2; stroke: #000000" x="600.87" y="227.168" width="8" height="4"/>
  </g>
  <g>
    <rect style="fill: #000000" x="600.706" y="190.416" width="8" height="4"/>
    <rect style="fill: none; fill-opacity:0; stroke-width: 2; stroke: #000000" x="600.706" y="190.416" width="8" height="4"/>
  </g>
  <g>
    <rect style="fill: #000000" x="601.449" y="238.578" width="8" height="4"/>
    <rect style="fill: none; fill-opacity:0; stroke-width: 2; stroke: #000000" x="601.449" y="238.578" width="8" height="4"/>
  </g>
  <line style="fill: none; fill-opacity:0; stroke-width: 2; stroke: #000000" x1="656.758" y1="228.668" x2="656.84" y2="218"/>
  <line style="fill: none; fill-opacity:0; stroke-width: 2; stroke: #000000" x1="621.894" y1="251.33" x2="656.934" y2="228.518"/>
  <line style="fill: none; fill-opacity:0; stroke-width: 2; stroke: #000000" x1="622.637" y1="251.478" x2="610.263" y2="251.454"/>
  <text font-size="12.8" style="fill: #000000;text-anchor:start;font-family:sans-serif;font-style:normal;font-weight:normal" x="260" y="360">
    <tspan x="260" y="360">MC001AM10 Connection Configurations</tspan>
  </text>
</svg>
